<mxfile host="65bd71144e">
    <diagram name="Copy of Page-1 (2)" id="N_eRmoQqF92bxBQ9VahH">
        <mxGraphModel dx="3227" dy="989" grid="1" gridSize="10" guides="1" tooltips="1" connect="1" arrows="1" fold="1" page="1" pageScale="1" pageWidth="827" pageHeight="1169" math="0" shadow="0">
            <root>
                <mxCell id="aCFG1eql-jymo-9pYJY_-0"/>
                <mxCell id="aCFG1eql-jymo-9pYJY_-1" parent="aCFG1eql-jymo-9pYJY_-0"/>
                <mxCell id="aCFG1eql-jymo-9pYJY_-3" value="&lt;font style=&quot;font-size: 24px;&quot;&gt;Server&lt;/font&gt;" style="rounded=0;whiteSpace=wrap;html=1;fontStyle=1;verticalAlign=top;" vertex="1" parent="aCFG1eql-jymo-9pYJY_-1">
                    <mxGeometry x="10" width="1310" height="680" as="geometry"/>
                </mxCell>
                <mxCell id="aCFG1eql-jymo-9pYJY_-4" value="" style="rounded=0;whiteSpace=wrap;html=1;fontSize=18;dashed=1;dashPattern=8 8;" vertex="1" parent="aCFG1eql-jymo-9pYJY_-1">
                    <mxGeometry x="20" y="40" width="1270" height="480" as="geometry"/>
                </mxCell>
                <mxCell id="aCFG1eql-jymo-9pYJY_-5" value="&lt;b&gt;&lt;i&gt;&lt;font style=&quot;font-size: 24px;&quot;&gt;MCQ Generator Module&lt;/font&gt;&lt;/i&gt;&lt;/b&gt;" style="text;html=1;strokeColor=none;fillColor=none;align=center;verticalAlign=middle;whiteSpace=wrap;rounded=0;dashed=1;dashPattern=8 8;fontSize=18;" vertex="1" parent="aCFG1eql-jymo-9pYJY_-1">
                    <mxGeometry x="20" y="40" width="280" height="30" as="geometry"/>
                </mxCell>
                <mxCell id="aCFG1eql-jymo-9pYJY_-6" value="&lt;font style=&quot;font-size: 18px;&quot;&gt;&lt;b style=&quot;&quot;&gt;Context&lt;/b&gt;:&lt;br&gt;Advanced RISC Machines is a family of RISC instruction set architectures (ISAs) for computer processors. Arm Ltd. develops the ISAs and licenses them to other companies, who build the physical devices that use the instruction set. It also designs and licenses cores that implement these ISAs.&lt;/font&gt;" style="rounded=0;whiteSpace=wrap;html=1;fontSize=18;align=left;fillColor=#ffe6cc;strokeColor=#d79b00;" vertex="1" parent="aCFG1eql-jymo-9pYJY_-1">
                    <mxGeometry x="30" y="160" width="280" height="230" as="geometry"/>
                </mxCell>
                <mxCell id="aCFG1eql-jymo-9pYJY_-7" style="edgeStyle=none;html=1;entryX=0.5;entryY=0;entryDx=0;entryDy=0;fontSize=18;endArrow=none;endFill=0;startArrow=circle;startFill=1;exitX=0.5;exitY=1;exitDx=0;exitDy=0;" edge="1" parent="aCFG1eql-jymo-9pYJY_-1" source="aCFG1eql-jymo-9pYJY_-6" target="aCFG1eql-jymo-9pYJY_-8">
                    <mxGeometry relative="1" as="geometry">
                        <mxPoint x="210" y="410" as="sourcePoint"/>
                    </mxGeometry>
                </mxCell>
                <mxCell id="aCFG1eql-jymo-9pYJY_-8" value="&lt;b&gt;Text preprocessing&lt;/b&gt;" style="rounded=0;whiteSpace=wrap;html=1;fontSize=18;fillColor=#ffe6cc;strokeColor=#d79b00;" vertex="1" parent="aCFG1eql-jymo-9pYJY_-1">
                    <mxGeometry x="30" y="450" width="280" height="40" as="geometry"/>
                </mxCell>
                <mxCell id="aCFG1eql-jymo-9pYJY_-9" value="&lt;div style=&quot;text-align: left;&quot;&gt;&lt;b style=&quot;&quot;&gt;Question #1&lt;/b&gt;&lt;span style=&quot;&quot;&gt;:&lt;/span&gt;&lt;/div&gt;&lt;font style=&quot;font-size: 18px;&quot;&gt;&lt;div style=&quot;text-align: left;&quot;&gt;&lt;span style=&quot;&quot;&gt;Lorem ipsum dolor sit amet, consectetur adipiscing elit. Curabitur lorem ante, porttitor at diam vel, mattis vehicula sem. Cras ante massa, tempus sed risus id, ornare porta sem.&lt;/span&gt;&lt;/div&gt;&lt;div style=&quot;text-align: left;&quot;&gt;&lt;span style=&quot;&quot;&gt;&lt;br&gt;&lt;/span&gt;&lt;/div&gt;&lt;div style=&quot;text-align: left;&quot;&gt;&lt;b style=&quot;border-color: var(--border-color);&quot;&gt;Answer&lt;/b&gt;&lt;span style=&quot;border-color: var(--border-color);&quot;&gt;:&lt;/span&gt;&lt;span style=&quot;&quot;&gt;&lt;br&gt;&lt;/span&gt;&lt;/div&gt;&lt;div style=&quot;text-align: left;&quot;&gt;&lt;span style=&quot;border-color: var(--border-color);&quot;&gt;8&lt;/span&gt;&lt;/div&gt;&lt;/font&gt;" style="rounded=0;whiteSpace=wrap;html=1;fontSize=18;fillColor=#d5e8d4;strokeColor=#82b366;labelBackgroundColor=none;" vertex="1" parent="aCFG1eql-jymo-9pYJY_-1">
                    <mxGeometry x="430" y="150" width="320" height="200" as="geometry"/>
                </mxCell>
                <mxCell id="aCFG1eql-jymo-9pYJY_-10" value="&lt;div style=&quot;&quot;&gt;&lt;b style=&quot;&quot;&gt;Question #...&lt;/b&gt;&lt;span style=&quot;&quot;&gt;:&lt;/span&gt;&lt;/div&gt;&lt;font style=&quot;font-size: 18px;&quot;&gt;&lt;div style=&quot;&quot;&gt;&lt;span style=&quot;&quot;&gt;...&lt;/span&gt;&lt;/div&gt;&lt;div style=&quot;&quot;&gt;&lt;span style=&quot;&quot;&gt;&lt;br&gt;&lt;/span&gt;&lt;/div&gt;&lt;div style=&quot;&quot;&gt;&lt;span style=&quot;&quot;&gt;&lt;br&gt;&lt;/span&gt;&lt;/div&gt;&lt;div style=&quot;&quot;&gt;&lt;span style=&quot;&quot;&gt;&lt;br&gt;&lt;/span&gt;&lt;/div&gt;&lt;div style=&quot;&quot;&gt;&lt;span style=&quot;&quot;&gt;&lt;br&gt;&lt;/span&gt;&lt;/div&gt;&lt;div style=&quot;&quot;&gt;&lt;b style=&quot;border-color: var(--border-color);&quot;&gt;Answer&lt;/b&gt;&lt;span style=&quot;border-color: var(--border-color);&quot;&gt;:&lt;/span&gt;&lt;span style=&quot;&quot;&gt;&lt;br&gt;&lt;/span&gt;&lt;/div&gt;&lt;div style=&quot;&quot;&gt;...&lt;/div&gt;&lt;/font&gt;" style="rounded=0;whiteSpace=wrap;html=1;fontSize=18;align=left;fillColor=#d5e8d4;strokeColor=#82b366;labelBackgroundColor=none;" vertex="1" parent="aCFG1eql-jymo-9pYJY_-1">
                    <mxGeometry x="440" y="180" width="320" height="200" as="geometry"/>
                </mxCell>
                <mxCell id="aCFG1eql-jymo-9pYJY_-11" value="&lt;div style=&quot;&quot;&gt;&lt;b style=&quot;background-color: initial;&quot;&gt;Question #N&lt;/b&gt;&lt;span style=&quot;background-color: initial;&quot;&gt;:&lt;/span&gt;&lt;/div&gt;&lt;div style=&quot;&quot;&gt;&lt;span style=&quot;background-color: initial;&quot;&gt;Who built the ISAs for the Advanced RISC Machines instruction set?&lt;/span&gt;&lt;/div&gt;&lt;font style=&quot;font-size: 18px;&quot;&gt;&lt;div style=&quot;&quot;&gt;&lt;span style=&quot;background-color: rgb(255, 255, 255);&quot;&gt;&lt;br&gt;&lt;/span&gt;&lt;/div&gt;&lt;div style=&quot;&quot;&gt;&lt;br&gt;&lt;/div&gt;&lt;div style=&quot;&quot;&gt;&lt;b style=&quot;border-color: var(--border-color); background-color: initial;&quot;&gt;Answer&lt;/b&gt;&lt;span style=&quot;border-color: var(--border-color); background-color: initial;&quot;&gt;:&lt;/span&gt;&lt;span style=&quot;background-color: rgb(255, 255, 255);&quot;&gt;&lt;br&gt;&lt;/span&gt;&lt;/div&gt;&lt;div style=&quot;&quot;&gt;Arm Ltd.&lt;/div&gt;&lt;/font&gt;" style="rounded=0;whiteSpace=wrap;html=1;fontSize=18;align=left;fillColor=#d5e8d4;strokeColor=#82b366;" vertex="1" parent="aCFG1eql-jymo-9pYJY_-1">
                    <mxGeometry x="460" y="230" width="320" height="170" as="geometry"/>
                </mxCell>
                <mxCell id="aCFG1eql-jymo-9pYJY_-12" value="" style="rounded=0;whiteSpace=wrap;html=1;fontSize=18;dashed=1;dashPattern=8 8;" vertex="1" parent="aCFG1eql-jymo-9pYJY_-1">
                    <mxGeometry x="19" y="540" width="1271" height="120" as="geometry"/>
                </mxCell>
                <mxCell id="aCFG1eql-jymo-9pYJY_-13" style="edgeStyle=none;html=1;entryX=0.5;entryY=0;entryDx=0;entryDy=0;fontFamily=Helvetica;fontSize=24;startArrow=none;startFill=0;endArrow=block;endFill=0;endSize=15;" edge="1" parent="aCFG1eql-jymo-9pYJY_-1" source="aCFG1eql-jymo-9pYJY_-15" target="aCFG1eql-jymo-9pYJY_-18">
                    <mxGeometry relative="1" as="geometry"/>
                </mxCell>
                <mxCell id="aCFG1eql-jymo-9pYJY_-14" style="edgeStyle=none;html=1;entryX=0;entryY=0.5;entryDx=0;entryDy=0;fontSize=18;" edge="1" parent="aCFG1eql-jymo-9pYJY_-1" source="aCFG1eql-jymo-9pYJY_-15" target="aCFG1eql-jymo-9pYJY_-25">
                    <mxGeometry relative="1" as="geometry"/>
                </mxCell>
                <mxCell id="aCFG1eql-jymo-9pYJY_-15" value="&lt;b&gt;Question-answer generation&amp;nbsp;&lt;/b&gt;" style="rounded=0;whiteSpace=wrap;html=1;fontSize=18;fillColor=#d5e8d4;strokeColor=#82b366;" vertex="1" parent="aCFG1eql-jymo-9pYJY_-1">
                    <mxGeometry x="460" y="450" width="320" height="40" as="geometry"/>
                </mxCell>
                <mxCell id="aCFG1eql-jymo-9pYJY_-16" value="" style="endArrow=classic;html=1;fontFamily=Helvetica;fontSize=18;exitX=1;exitY=0.5;exitDx=0;exitDy=0;entryX=0;entryY=0.5;entryDx=0;entryDy=0;" edge="1" parent="aCFG1eql-jymo-9pYJY_-1" source="aCFG1eql-jymo-9pYJY_-8" target="aCFG1eql-jymo-9pYJY_-15">
                    <mxGeometry width="50" height="50" relative="1" as="geometry">
                        <mxPoint x="210" y="550" as="sourcePoint"/>
                        <mxPoint x="260" y="500" as="targetPoint"/>
                    </mxGeometry>
                </mxCell>
                <mxCell id="aCFG1eql-jymo-9pYJY_-17" value="&lt;b&gt;&lt;i&gt;&lt;font style=&quot;font-size: 24px;&quot;&gt;ML Models&lt;/font&gt;&lt;/i&gt;&lt;/b&gt;" style="text;html=1;strokeColor=none;fillColor=none;align=left;verticalAlign=middle;whiteSpace=wrap;rounded=0;dashed=1;dashPattern=8 8;fontSize=18;" vertex="1" parent="aCFG1eql-jymo-9pYJY_-1">
                    <mxGeometry x="19" y="540" width="210" height="30" as="geometry"/>
                </mxCell>
                <mxCell id="aCFG1eql-jymo-9pYJY_-18" value="T5-base&lt;br&gt;Multitask Question-Answer Generation" style="rounded=0;whiteSpace=wrap;html=1;fontSize=18;fillColor=#d5e8d4;strokeColor=#82b366;" vertex="1" parent="aCFG1eql-jymo-9pYJY_-1">
                    <mxGeometry x="450" y="575" width="340" height="70" as="geometry"/>
                </mxCell>
                <mxCell id="aCFG1eql-jymo-9pYJY_-19" style="edgeStyle=none;html=1;entryX=0.5;entryY=0;entryDx=0;entryDy=0;fontSize=18;endArrow=none;endFill=0;startArrow=circle;startFill=1;exitX=0.5;exitY=1;exitDx=0;exitDy=0;" edge="1" parent="aCFG1eql-jymo-9pYJY_-1" source="aCFG1eql-jymo-9pYJY_-11" target="aCFG1eql-jymo-9pYJY_-15">
                    <mxGeometry relative="1" as="geometry">
                        <mxPoint x="180" y="400" as="sourcePoint"/>
                        <mxPoint x="180" y="460" as="targetPoint"/>
                    </mxGeometry>
                </mxCell>
                <mxCell id="aCFG1eql-jymo-9pYJY_-22" value="&lt;div style=&quot;text-align: left;&quot;&gt;&lt;b style=&quot;&quot;&gt;Question #1&lt;/b&gt;&lt;span style=&quot;&quot;&gt;:&lt;/span&gt;&lt;/div&gt;&lt;font style=&quot;font-size: 18px;&quot;&gt;&lt;div style=&quot;text-align: left;&quot;&gt;&lt;span style=&quot;&quot;&gt;Lorem ipsum dolor sit amet, consectetur adipiscing elit. Curabitur lorem ante, porttitor at diam vel, mattis vehicula sem. Cras ante massa, tempus sed risus id, ornare porta sem.&lt;/span&gt;&lt;/div&gt;&lt;div style=&quot;text-align: left;&quot;&gt;&lt;span style=&quot;&quot;&gt;&lt;br&gt;&lt;/span&gt;&lt;/div&gt;&lt;div style=&quot;text-align: left;&quot;&gt;&lt;b style=&quot;border-color: var(--border-color);&quot;&gt;Answer&lt;/b&gt;&lt;span style=&quot;border-color: var(--border-color);&quot;&gt;:&lt;/span&gt;&lt;span style=&quot;&quot;&gt;&lt;br&gt;&lt;/span&gt;&lt;/div&gt;&lt;div style=&quot;text-align: left;&quot;&gt;&lt;span style=&quot;border-color: var(--border-color);&quot;&gt;8&lt;/span&gt;&lt;/div&gt;&lt;div style=&quot;text-align: left;&quot;&gt;&lt;span style=&quot;border-color: var(--border-color);&quot;&gt;&lt;br&gt;&lt;/span&gt;&lt;/div&gt;&lt;div style=&quot;text-align: left;&quot;&gt;&lt;span style=&quot;border-color: var(--border-color);&quot;&gt;&lt;div style=&quot;border-color: var(--border-color);&quot;&gt;&lt;b style=&quot;border-color: var(--border-color);&quot;&gt;Distractors&lt;/b&gt;&lt;span style=&quot;border-color: var(--border-color);&quot;&gt;:&lt;/span&gt;&lt;span style=&quot;border-color: var(--border-color);&quot;&gt;&lt;br style=&quot;border-color: var(--border-color);&quot;&gt;&lt;/span&gt;&lt;/div&gt;&lt;div style=&quot;border-color: var(--border-color);&quot;&gt;[&quot;5&quot;, &quot;6&quot;, &quot;7&quot;]&lt;/div&gt;&lt;/span&gt;&lt;/div&gt;&lt;/font&gt;" style="rounded=0;whiteSpace=wrap;html=1;fontSize=18;fillColor=#dae8fc;strokeColor=#6c8ebf;labelBackgroundColor=none;" vertex="1" parent="aCFG1eql-jymo-9pYJY_-1">
                    <mxGeometry x="898" y="70" width="320" height="270" as="geometry"/>
                </mxCell>
                <mxCell id="aCFG1eql-jymo-9pYJY_-23" value="&lt;div style=&quot;&quot;&gt;&lt;b style=&quot;&quot;&gt;Question #...&lt;/b&gt;&lt;span style=&quot;&quot;&gt;:&lt;/span&gt;&lt;/div&gt;&lt;font style=&quot;font-size: 18px;&quot;&gt;&lt;div style=&quot;&quot;&gt;&lt;span style=&quot;&quot;&gt;...&lt;/span&gt;&lt;/div&gt;&lt;div style=&quot;&quot;&gt;&lt;span style=&quot;&quot;&gt;&lt;br&gt;&lt;/span&gt;&lt;/div&gt;&lt;div style=&quot;&quot;&gt;&lt;br&gt;&lt;/div&gt;&lt;div style=&quot;&quot;&gt;&lt;span style=&quot;&quot;&gt;&lt;br&gt;&lt;/span&gt;&lt;/div&gt;&lt;div style=&quot;&quot;&gt;&lt;span style=&quot;&quot;&gt;&lt;br&gt;&lt;/span&gt;&lt;/div&gt;&lt;div style=&quot;&quot;&gt;&lt;b style=&quot;border-color: var(--border-color);&quot;&gt;Answer&lt;/b&gt;&lt;span style=&quot;border-color: var(--border-color);&quot;&gt;:&lt;/span&gt;&lt;span style=&quot;&quot;&gt;&lt;br&gt;&lt;/span&gt;&lt;/div&gt;&lt;div style=&quot;&quot;&gt;...&lt;/div&gt;&lt;div style=&quot;&quot;&gt;&lt;span style=&quot;border-color: var(--border-color);&quot;&gt;&lt;br&gt;&lt;/span&gt;&lt;/div&gt;&lt;div style=&quot;&quot;&gt;&lt;span style=&quot;border-color: var(--border-color);&quot;&gt;&lt;br&gt;&lt;/span&gt;&lt;/div&gt;&lt;div style=&quot;&quot;&gt;&lt;span style=&quot;border-color: var(--border-color);&quot;&gt;&lt;div style=&quot;border-color: var(--border-color);&quot;&gt;&lt;b style=&quot;border-color: var(--border-color);&quot;&gt;Distractors&lt;/b&gt;&lt;span style=&quot;border-color: var(--border-color);&quot;&gt;:&lt;/span&gt;&lt;span style=&quot;border-color: var(--border-color);&quot;&gt;&lt;br style=&quot;border-color: var(--border-color);&quot;&gt;&lt;/span&gt;&lt;/div&gt;&lt;div style=&quot;border-color: var(--border-color);&quot;&gt;...&lt;/div&gt;&lt;/span&gt;&lt;/div&gt;&lt;/font&gt;" style="rounded=0;whiteSpace=wrap;html=1;fontSize=18;align=left;horizontal=1;verticalAlign=top;fillColor=#dae8fc;strokeColor=#6c8ebf;labelBackgroundColor=none;" vertex="1" parent="aCFG1eql-jymo-9pYJY_-1">
                    <mxGeometry x="910" y="110" width="320" height="270" as="geometry"/>
                </mxCell>
                <mxCell id="aCFG1eql-jymo-9pYJY_-24" value="&lt;div style=&quot;&quot;&gt;&lt;b style=&quot;background-color: initial;&quot;&gt;Question #N&lt;/b&gt;&lt;span style=&quot;background-color: initial;&quot;&gt;:&lt;/span&gt;&lt;/div&gt;&lt;div style=&quot;&quot;&gt;&lt;span style=&quot;background-color: initial;&quot;&gt;Who built the ISAs for the Advanced RISC Machines instruction set?&lt;/span&gt;&lt;/div&gt;&lt;font style=&quot;font-size: 18px;&quot;&gt;&lt;div style=&quot;&quot;&gt;&lt;span style=&quot;background-color: rgb(255, 255, 255);&quot;&gt;&lt;br&gt;&lt;/span&gt;&lt;/div&gt;&lt;div style=&quot;&quot;&gt;&lt;br&gt;&lt;/div&gt;&lt;div style=&quot;&quot;&gt;&lt;b style=&quot;border-color: var(--border-color); background-color: initial;&quot;&gt;Answer&lt;/b&gt;&lt;span style=&quot;border-color: var(--border-color); background-color: initial;&quot;&gt;:&lt;/span&gt;&lt;span style=&quot;background-color: rgb(255, 255, 255);&quot;&gt;&lt;br&gt;&lt;/span&gt;&lt;/div&gt;&lt;div style=&quot;&quot;&gt;Arm Ltd.&lt;/div&gt;&lt;div style=&quot;&quot;&gt;&lt;br&gt;&lt;/div&gt;&lt;div style=&quot;&quot;&gt;&lt;div style=&quot;border-color: var(--border-color);&quot;&gt;&lt;b style=&quot;border-color: var(--border-color); background-color: initial;&quot;&gt;Distractors&lt;/b&gt;&lt;span style=&quot;border-color: var(--border-color); background-color: initial;&quot;&gt;:&lt;/span&gt;&lt;span style=&quot;border-color: var(--border-color); background-color: rgb(255, 255, 255);&quot;&gt;&lt;br style=&quot;border-color: var(--border-color);&quot;&gt;&lt;/span&gt;&lt;/div&gt;&lt;div style=&quot;border-color: var(--border-color);&quot;&gt;[&quot;ISAs&quot;, &quot;processors&quot;, &quot;companies&quot;]&lt;/div&gt;&lt;/div&gt;&lt;/font&gt;" style="rounded=0;whiteSpace=wrap;html=1;fontSize=18;align=left;verticalAlign=top;fillColor=#dae8fc;strokeColor=#6c8ebf;" vertex="1" parent="aCFG1eql-jymo-9pYJY_-1">
                    <mxGeometry x="930" y="160" width="320" height="240" as="geometry"/>
                </mxCell>
                <mxCell id="aCFG1eql-jymo-9pYJY_-25" value="&lt;b&gt;Distractor generation&amp;nbsp;&lt;/b&gt;" style="rounded=0;whiteSpace=wrap;html=1;fontSize=18;fillColor=#dae8fc;strokeColor=#6c8ebf;" vertex="1" parent="aCFG1eql-jymo-9pYJY_-1">
                    <mxGeometry x="914" y="450" width="352" height="40" as="geometry"/>
                </mxCell>
                <mxCell id="aCFG1eql-jymo-9pYJY_-26" style="edgeStyle=none;html=1;entryX=0.5;entryY=0;entryDx=0;entryDy=0;fontSize=18;endArrow=none;endFill=0;startArrow=circle;startFill=1;exitX=0.5;exitY=1;exitDx=0;exitDy=0;" edge="1" parent="aCFG1eql-jymo-9pYJY_-1" source="aCFG1eql-jymo-9pYJY_-24" target="aCFG1eql-jymo-9pYJY_-25">
                    <mxGeometry relative="1" as="geometry">
                        <mxPoint x="630" y="410" as="sourcePoint"/>
                        <mxPoint x="630" y="460" as="targetPoint"/>
                    </mxGeometry>
                </mxCell>
                <mxCell id="aCFG1eql-jymo-9pYJY_-27" value="spaCy + Sense2vec&lt;br&gt;Distractor Generation" style="rounded=0;whiteSpace=wrap;html=1;fontSize=18;fillColor=#dae8fc;strokeColor=#6c8ebf;" vertex="1" parent="aCFG1eql-jymo-9pYJY_-1">
                    <mxGeometry x="920" y="575" width="340" height="70" as="geometry"/>
                </mxCell>
                <mxCell id="aCFG1eql-jymo-9pYJY_-28" style="edgeStyle=none;html=1;entryX=0.5;entryY=0;entryDx=0;entryDy=0;fontFamily=Helvetica;fontSize=24;startArrow=none;startFill=0;endArrow=block;endFill=0;endSize=15;exitX=0.5;exitY=1;exitDx=0;exitDy=0;" edge="1" parent="aCFG1eql-jymo-9pYJY_-1" source="aCFG1eql-jymo-9pYJY_-25" target="aCFG1eql-jymo-9pYJY_-27">
                    <mxGeometry relative="1" as="geometry">
                        <mxPoint x="630" y="500" as="sourcePoint"/>
                        <mxPoint x="630" y="585" as="targetPoint"/>
                    </mxGeometry>
                </mxCell>
                <mxCell id="v_rT343SbBZt1YdKkpyl-0" value="&lt;font style=&quot;font-size: 24px;&quot;&gt;Client&lt;/font&gt;" style="rounded=0;whiteSpace=wrap;html=1;fontStyle=1" vertex="1" parent="aCFG1eql-jymo-9pYJY_-1">
                    <mxGeometry x="-200" width="90" height="680" as="geometry"/>
                </mxCell>
                <mxCell id="u8CcwuBdRNlvw8mRXkdl-0" value="" style="endArrow=classic;html=1;fontSize=18;exitX=1;exitY=0.5;exitDx=0;exitDy=0;entryX=0;entryY=0.5;entryDx=0;entryDy=0;" edge="1" parent="aCFG1eql-jymo-9pYJY_-1" source="v_rT343SbBZt1YdKkpyl-0" target="aCFG1eql-jymo-9pYJY_-3">
                    <mxGeometry relative="1" as="geometry">
                        <mxPoint x="-130" y="400" as="sourcePoint"/>
                        <mxPoint x="-30" y="400" as="targetPoint"/>
                    </mxGeometry>
                </mxCell>
                <mxCell id="u8CcwuBdRNlvw8mRXkdl-1" value="&lt;font style=&quot;font-size: 18px;&quot;&gt;REST API&lt;/font&gt;" style="edgeLabel;resizable=0;html=1;align=center;verticalAlign=middle;fontSize=18;" connectable="0" vertex="1" parent="u8CcwuBdRNlvw8mRXkdl-0">
                    <mxGeometry relative="1" as="geometry"/>
                </mxCell>
            </root>
        </mxGraphModel>
    </diagram>
    <diagram name="Copy of Page-1" id="8oYPXBHQdbNVuUZrn4EM">
        <mxGraphModel dx="3627" dy="1153" grid="1" gridSize="10" guides="1" tooltips="1" connect="1" arrows="1" fold="1" page="1" pageScale="1" pageWidth="827" pageHeight="1169" math="0" shadow="0">
            <root>
                <mxCell id="cKXsBEh2mnzxp_OMoGhj-0"/>
                <mxCell id="cKXsBEh2mnzxp_OMoGhj-1" parent="cKXsBEh2mnzxp_OMoGhj-0"/>
                <mxCell id="cKXsBEh2mnzxp_OMoGhj-2" value="&lt;font style=&quot;font-size: 24px;&quot;&gt;Client&lt;/font&gt;" style="rounded=0;whiteSpace=wrap;html=1;fontStyle=1" vertex="1" parent="cKXsBEh2mnzxp_OMoGhj-1">
                    <mxGeometry x="-210" width="90" height="1030" as="geometry"/>
                </mxCell>
                <mxCell id="cKXsBEh2mnzxp_OMoGhj-3" value="&lt;font style=&quot;font-size: 24px;&quot;&gt;Server&lt;/font&gt;" style="rounded=0;whiteSpace=wrap;html=1;fontStyle=1;verticalAlign=top;" vertex="1" parent="cKXsBEh2mnzxp_OMoGhj-1">
                    <mxGeometry x="10" width="1310" height="1030" as="geometry"/>
                </mxCell>
                <mxCell id="cKXsBEh2mnzxp_OMoGhj-4" value="" style="rounded=0;whiteSpace=wrap;html=1;fontSize=18;dashed=1;dashPattern=8 8;" vertex="1" parent="cKXsBEh2mnzxp_OMoGhj-1">
                    <mxGeometry x="20" y="40" width="780" height="970" as="geometry"/>
                </mxCell>
                <mxCell id="cKXsBEh2mnzxp_OMoGhj-5" value="&lt;b&gt;&lt;i&gt;&lt;font style=&quot;font-size: 24px;&quot;&gt;MCQ Generator Module&lt;/font&gt;&lt;/i&gt;&lt;/b&gt;" style="text;html=1;strokeColor=none;fillColor=none;align=center;verticalAlign=middle;whiteSpace=wrap;rounded=0;dashed=1;dashPattern=8 8;fontSize=18;" vertex="1" parent="cKXsBEh2mnzxp_OMoGhj-1">
                    <mxGeometry x="20" y="40" width="280" height="30" as="geometry"/>
                </mxCell>
                <mxCell id="cKXsBEh2mnzxp_OMoGhj-6" value="&lt;font style=&quot;font-size: 18px;&quot;&gt;&lt;b style=&quot;&quot;&gt;Context&lt;/b&gt;:&lt;br&gt;Advanced RISC Machines is a family of RISC instruction set architectures (ISAs) for computer processors. Arm Ltd. develops the ISAs and licenses them to other companies, who build the physical devices that use the instruction set. It also designs and licenses cores that implement these ISAs.&lt;/font&gt;" style="rounded=0;whiteSpace=wrap;html=1;fontSize=18;align=left;" vertex="1" parent="cKXsBEh2mnzxp_OMoGhj-1">
                    <mxGeometry x="30" y="80" width="280" height="230" as="geometry"/>
                </mxCell>
                <mxCell id="cKXsBEh2mnzxp_OMoGhj-7" style="edgeStyle=none;html=1;entryX=0;entryY=0.5;entryDx=0;entryDy=0;fontSize=18;endArrow=none;endFill=0;startArrow=circle;startFill=1;exitX=1;exitY=0.5;exitDx=0;exitDy=0;" edge="1" parent="cKXsBEh2mnzxp_OMoGhj-1" source="cKXsBEh2mnzxp_OMoGhj-6" target="cKXsBEh2mnzxp_OMoGhj-8">
                    <mxGeometry relative="1" as="geometry">
                        <mxPoint x="200" y="330" as="sourcePoint"/>
                    </mxGeometry>
                </mxCell>
                <mxCell id="cKXsBEh2mnzxp_OMoGhj-8" value="&lt;b&gt;Text preprocessing&lt;/b&gt;" style="rounded=0;whiteSpace=wrap;html=1;fontSize=18;" vertex="1" parent="cKXsBEh2mnzxp_OMoGhj-1">
                    <mxGeometry x="470" y="175" width="280" height="40" as="geometry"/>
                </mxCell>
                <mxCell id="cKXsBEh2mnzxp_OMoGhj-9" value="&lt;div style=&quot;text-align: left;&quot;&gt;&lt;b style=&quot;background-color: initial;&quot;&gt;Question #1&lt;/b&gt;&lt;span style=&quot;background-color: initial;&quot;&gt;:&lt;/span&gt;&lt;/div&gt;&lt;font style=&quot;font-size: 18px;&quot;&gt;&lt;div style=&quot;text-align: left;&quot;&gt;&lt;span style=&quot;background-color: rgb(255, 255, 255);&quot;&gt;Lorem ipsum dolor sit amet, consectetur adipiscing elit. Curabitur lorem ante, porttitor at diam vel, mattis vehicula sem. Cras ante massa, tempus sed risus id, ornare porta sem.&lt;/span&gt;&lt;/div&gt;&lt;div style=&quot;text-align: left;&quot;&gt;&lt;span style=&quot;background-color: rgb(255, 255, 255);&quot;&gt;&lt;br&gt;&lt;/span&gt;&lt;/div&gt;&lt;div style=&quot;text-align: left;&quot;&gt;&lt;b style=&quot;border-color: var(--border-color); background-color: initial;&quot;&gt;Answer&lt;/b&gt;&lt;span style=&quot;border-color: var(--border-color); background-color: initial;&quot;&gt;:&lt;/span&gt;&lt;span style=&quot;background-color: rgb(255, 255, 255);&quot;&gt;&lt;br&gt;&lt;/span&gt;&lt;/div&gt;&lt;div style=&quot;text-align: left;&quot;&gt;&lt;span style=&quot;border-color: var(--border-color); background-color: initial;&quot;&gt;8&lt;/span&gt;&lt;/div&gt;&lt;/font&gt;" style="rounded=0;whiteSpace=wrap;html=1;fontSize=18;" vertex="1" parent="cKXsBEh2mnzxp_OMoGhj-1">
                    <mxGeometry x="20" y="360" width="320" height="200" as="geometry"/>
                </mxCell>
                <mxCell id="cKXsBEh2mnzxp_OMoGhj-10" value="&lt;div style=&quot;&quot;&gt;&lt;b style=&quot;background-color: initial;&quot;&gt;Question #...&lt;/b&gt;&lt;span style=&quot;background-color: initial;&quot;&gt;:&lt;/span&gt;&lt;/div&gt;&lt;font style=&quot;font-size: 18px;&quot;&gt;&lt;div style=&quot;&quot;&gt;&lt;span style=&quot;background-color: rgb(255, 255, 255);&quot;&gt;...&lt;/span&gt;&lt;/div&gt;&lt;div style=&quot;&quot;&gt;&lt;span style=&quot;background-color: rgb(255, 255, 255);&quot;&gt;&lt;br&gt;&lt;/span&gt;&lt;/div&gt;&lt;div style=&quot;&quot;&gt;&lt;span style=&quot;background-color: rgb(255, 255, 255);&quot;&gt;&lt;br&gt;&lt;/span&gt;&lt;/div&gt;&lt;div style=&quot;&quot;&gt;&lt;span style=&quot;background-color: rgb(255, 255, 255);&quot;&gt;&lt;br&gt;&lt;/span&gt;&lt;/div&gt;&lt;div style=&quot;&quot;&gt;&lt;span style=&quot;background-color: rgb(255, 255, 255);&quot;&gt;&lt;br&gt;&lt;/span&gt;&lt;/div&gt;&lt;div style=&quot;&quot;&gt;&lt;b style=&quot;border-color: var(--border-color); background-color: initial;&quot;&gt;Answer&lt;/b&gt;&lt;span style=&quot;border-color: var(--border-color); background-color: initial;&quot;&gt;:&lt;/span&gt;&lt;span style=&quot;background-color: rgb(255, 255, 255);&quot;&gt;&lt;br&gt;&lt;/span&gt;&lt;/div&gt;&lt;div style=&quot;&quot;&gt;...&lt;/div&gt;&lt;/font&gt;" style="rounded=0;whiteSpace=wrap;html=1;fontSize=18;align=left;" vertex="1" parent="cKXsBEh2mnzxp_OMoGhj-1">
                    <mxGeometry x="30" y="390" width="320" height="200" as="geometry"/>
                </mxCell>
                <mxCell id="cKXsBEh2mnzxp_OMoGhj-11" value="&lt;div style=&quot;&quot;&gt;&lt;b style=&quot;background-color: initial;&quot;&gt;Question #N&lt;/b&gt;&lt;span style=&quot;background-color: initial;&quot;&gt;:&lt;/span&gt;&lt;/div&gt;&lt;div style=&quot;&quot;&gt;&lt;span style=&quot;background-color: initial;&quot;&gt;Who built the ISAs for the Advanced RISC Machines instruction set?&lt;/span&gt;&lt;/div&gt;&lt;font style=&quot;font-size: 18px;&quot;&gt;&lt;div style=&quot;&quot;&gt;&lt;span style=&quot;background-color: rgb(255, 255, 255);&quot;&gt;&lt;br&gt;&lt;/span&gt;&lt;/div&gt;&lt;div style=&quot;&quot;&gt;&lt;br&gt;&lt;/div&gt;&lt;div style=&quot;&quot;&gt;&lt;b style=&quot;border-color: var(--border-color); background-color: initial;&quot;&gt;Answer&lt;/b&gt;&lt;span style=&quot;border-color: var(--border-color); background-color: initial;&quot;&gt;:&lt;/span&gt;&lt;span style=&quot;background-color: rgb(255, 255, 255);&quot;&gt;&lt;br&gt;&lt;/span&gt;&lt;/div&gt;&lt;div style=&quot;&quot;&gt;Arm Ltd.&lt;/div&gt;&lt;/font&gt;" style="rounded=0;whiteSpace=wrap;html=1;fontSize=18;align=left;" vertex="1" parent="cKXsBEh2mnzxp_OMoGhj-1">
                    <mxGeometry x="50" y="440" width="320" height="170" as="geometry"/>
                </mxCell>
                <mxCell id="cKXsBEh2mnzxp_OMoGhj-12" value="" style="rounded=0;whiteSpace=wrap;html=1;fontSize=18;dashed=1;dashPattern=8 8;" vertex="1" parent="cKXsBEh2mnzxp_OMoGhj-1">
                    <mxGeometry x="820" y="40" width="470" height="970" as="geometry"/>
                </mxCell>
                <mxCell id="cKXsBEh2mnzxp_OMoGhj-13" style="edgeStyle=none;html=1;entryX=0;entryY=0.5;entryDx=0;entryDy=0;fontFamily=Helvetica;fontSize=24;startArrow=none;startFill=0;endArrow=block;endFill=0;endSize=15;exitX=1;exitY=0.5;exitDx=0;exitDy=0;" edge="1" parent="cKXsBEh2mnzxp_OMoGhj-1" source="cKXsBEh2mnzxp_OMoGhj-15" target="cKXsBEh2mnzxp_OMoGhj-18">
                    <mxGeometry relative="1" as="geometry"/>
                </mxCell>
                <mxCell id="cKXsBEh2mnzxp_OMoGhj-14" style="edgeStyle=none;html=1;entryX=0.5;entryY=0;entryDx=0;entryDy=0;fontSize=18;" edge="1" parent="cKXsBEh2mnzxp_OMoGhj-1" source="cKXsBEh2mnzxp_OMoGhj-15" target="cKXsBEh2mnzxp_OMoGhj-25">
                    <mxGeometry relative="1" as="geometry"/>
                </mxCell>
                <mxCell id="cKXsBEh2mnzxp_OMoGhj-15" value="&lt;b&gt;Question-answer generation&amp;nbsp;&lt;/b&gt;" style="rounded=0;whiteSpace=wrap;html=1;fontSize=18;" vertex="1" parent="cKXsBEh2mnzxp_OMoGhj-1">
                    <mxGeometry x="450" y="505" width="320" height="40" as="geometry"/>
                </mxCell>
                <mxCell id="cKXsBEh2mnzxp_OMoGhj-16" value="" style="endArrow=classic;html=1;fontFamily=Helvetica;fontSize=18;exitX=0.5;exitY=1;exitDx=0;exitDy=0;entryX=0.5;entryY=0;entryDx=0;entryDy=0;" edge="1" parent="cKXsBEh2mnzxp_OMoGhj-1" source="cKXsBEh2mnzxp_OMoGhj-8" target="cKXsBEh2mnzxp_OMoGhj-15">
                    <mxGeometry width="50" height="50" relative="1" as="geometry">
                        <mxPoint x="200" y="470" as="sourcePoint"/>
                        <mxPoint x="250" y="420" as="targetPoint"/>
                    </mxGeometry>
                </mxCell>
                <mxCell id="cKXsBEh2mnzxp_OMoGhj-17" value="&lt;b&gt;&lt;i&gt;&lt;font style=&quot;font-size: 24px;&quot;&gt;ML Models&lt;/font&gt;&lt;/i&gt;&lt;/b&gt;" style="text;html=1;strokeColor=none;fillColor=none;align=left;verticalAlign=middle;whiteSpace=wrap;rounded=0;dashed=1;dashPattern=8 8;fontSize=18;" vertex="1" parent="cKXsBEh2mnzxp_OMoGhj-1">
                    <mxGeometry x="827" y="40" width="210" height="30" as="geometry"/>
                </mxCell>
                <mxCell id="cKXsBEh2mnzxp_OMoGhj-18" value="T5-base&lt;br&gt;Multitask Question-Answer Generation" style="rounded=0;whiteSpace=wrap;html=1;fontSize=18;" vertex="1" parent="cKXsBEh2mnzxp_OMoGhj-1">
                    <mxGeometry x="901" y="490" width="340" height="70" as="geometry"/>
                </mxCell>
                <mxCell id="cKXsBEh2mnzxp_OMoGhj-19" style="edgeStyle=none;html=1;entryX=0;entryY=0.5;entryDx=0;entryDy=0;fontSize=18;endArrow=none;endFill=0;startArrow=circle;startFill=1;exitX=1;exitY=0.5;exitDx=0;exitDy=0;" edge="1" parent="cKXsBEh2mnzxp_OMoGhj-1" source="cKXsBEh2mnzxp_OMoGhj-11" target="cKXsBEh2mnzxp_OMoGhj-15">
                    <mxGeometry relative="1" as="geometry">
                        <mxPoint x="170" y="320" as="sourcePoint"/>
                        <mxPoint x="170" y="380" as="targetPoint"/>
                    </mxGeometry>
                </mxCell>
                <mxCell id="cKXsBEh2mnzxp_OMoGhj-20" value="" style="endArrow=classic;html=1;exitX=1;exitY=0.5;exitDx=0;exitDy=0;entryX=0;entryY=0.5;entryDx=0;entryDy=0;" edge="1" parent="cKXsBEh2mnzxp_OMoGhj-1" source="cKXsBEh2mnzxp_OMoGhj-2" target="cKXsBEh2mnzxp_OMoGhj-3">
                    <mxGeometry relative="1" as="geometry">
                        <mxPoint x="570" y="-160" as="sourcePoint"/>
                        <mxPoint x="670" y="-160" as="targetPoint"/>
                    </mxGeometry>
                </mxCell>
                <mxCell id="cKXsBEh2mnzxp_OMoGhj-21" value="&lt;font style=&quot;font-size: 18px;&quot;&gt;REST API&lt;/font&gt;" style="edgeLabel;resizable=0;html=1;align=center;verticalAlign=middle;" connectable="0" vertex="1" parent="cKXsBEh2mnzxp_OMoGhj-20">
                    <mxGeometry relative="1" as="geometry"/>
                </mxCell>
                <mxCell id="cKXsBEh2mnzxp_OMoGhj-22" value="&lt;div style=&quot;text-align: left;&quot;&gt;&lt;b style=&quot;background-color: initial;&quot;&gt;Question #1&lt;/b&gt;&lt;span style=&quot;background-color: initial;&quot;&gt;:&lt;/span&gt;&lt;/div&gt;&lt;font style=&quot;font-size: 18px;&quot;&gt;&lt;div style=&quot;text-align: left;&quot;&gt;&lt;span style=&quot;background-color: rgb(255, 255, 255);&quot;&gt;Lorem ipsum dolor sit amet, consectetur adipiscing elit. Curabitur lorem ante, porttitor at diam vel, mattis vehicula sem. Cras ante massa, tempus sed risus id, ornare porta sem.&lt;/span&gt;&lt;/div&gt;&lt;div style=&quot;text-align: left;&quot;&gt;&lt;span style=&quot;background-color: rgb(255, 255, 255);&quot;&gt;&lt;br&gt;&lt;/span&gt;&lt;/div&gt;&lt;div style=&quot;text-align: left;&quot;&gt;&lt;b style=&quot;border-color: var(--border-color); background-color: initial;&quot;&gt;Answer&lt;/b&gt;&lt;span style=&quot;border-color: var(--border-color); background-color: initial;&quot;&gt;:&lt;/span&gt;&lt;span style=&quot;background-color: rgb(255, 255, 255);&quot;&gt;&lt;br&gt;&lt;/span&gt;&lt;/div&gt;&lt;div style=&quot;text-align: left;&quot;&gt;&lt;span style=&quot;border-color: var(--border-color); background-color: initial;&quot;&gt;8&lt;/span&gt;&lt;/div&gt;&lt;div style=&quot;text-align: left;&quot;&gt;&lt;span style=&quot;border-color: var(--border-color); background-color: initial;&quot;&gt;&lt;br&gt;&lt;/span&gt;&lt;/div&gt;&lt;div style=&quot;text-align: left;&quot;&gt;&lt;span style=&quot;border-color: var(--border-color); background-color: initial;&quot;&gt;&lt;div style=&quot;border-color: var(--border-color);&quot;&gt;&lt;b style=&quot;border-color: var(--border-color); background-color: initial;&quot;&gt;Distractors&lt;/b&gt;&lt;span style=&quot;border-color: var(--border-color); background-color: initial;&quot;&gt;:&lt;/span&gt;&lt;span style=&quot;border-color: var(--border-color); background-color: rgb(255, 255, 255);&quot;&gt;&lt;br style=&quot;border-color: var(--border-color);&quot;&gt;&lt;/span&gt;&lt;/div&gt;&lt;div style=&quot;border-color: var(--border-color);&quot;&gt;[&quot;5&quot;, &quot;6&quot;, &quot;7&quot;]&lt;/div&gt;&lt;/span&gt;&lt;/div&gt;&lt;/font&gt;" style="rounded=0;whiteSpace=wrap;html=1;fontSize=18;" vertex="1" parent="cKXsBEh2mnzxp_OMoGhj-1">
                    <mxGeometry x="30" y="660" width="320" height="270" as="geometry"/>
                </mxCell>
                <mxCell id="cKXsBEh2mnzxp_OMoGhj-23" value="&lt;div style=&quot;&quot;&gt;&lt;b style=&quot;background-color: initial;&quot;&gt;Question #...&lt;/b&gt;&lt;span style=&quot;background-color: initial;&quot;&gt;:&lt;/span&gt;&lt;/div&gt;&lt;font style=&quot;font-size: 18px;&quot;&gt;&lt;div style=&quot;&quot;&gt;&lt;span style=&quot;background-color: rgb(255, 255, 255);&quot;&gt;...&lt;/span&gt;&lt;/div&gt;&lt;div style=&quot;&quot;&gt;&lt;span style=&quot;background-color: rgb(255, 255, 255);&quot;&gt;&lt;br&gt;&lt;/span&gt;&lt;/div&gt;&lt;div style=&quot;&quot;&gt;&lt;br&gt;&lt;/div&gt;&lt;div style=&quot;&quot;&gt;&lt;span style=&quot;background-color: rgb(255, 255, 255);&quot;&gt;&lt;br&gt;&lt;/span&gt;&lt;/div&gt;&lt;div style=&quot;&quot;&gt;&lt;span style=&quot;background-color: rgb(255, 255, 255);&quot;&gt;&lt;br&gt;&lt;/span&gt;&lt;/div&gt;&lt;div style=&quot;&quot;&gt;&lt;b style=&quot;border-color: var(--border-color); background-color: initial;&quot;&gt;Answer&lt;/b&gt;&lt;span style=&quot;border-color: var(--border-color); background-color: initial;&quot;&gt;:&lt;/span&gt;&lt;span style=&quot;background-color: rgb(255, 255, 255);&quot;&gt;&lt;br&gt;&lt;/span&gt;&lt;/div&gt;&lt;div style=&quot;&quot;&gt;...&lt;/div&gt;&lt;div style=&quot;&quot;&gt;&lt;span style=&quot;border-color: var(--border-color); background-color: initial;&quot;&gt;&lt;br&gt;&lt;/span&gt;&lt;/div&gt;&lt;div style=&quot;&quot;&gt;&lt;span style=&quot;border-color: var(--border-color); background-color: initial;&quot;&gt;&lt;br&gt;&lt;/span&gt;&lt;/div&gt;&lt;div style=&quot;&quot;&gt;&lt;span style=&quot;border-color: var(--border-color); background-color: initial;&quot;&gt;&lt;div style=&quot;border-color: var(--border-color);&quot;&gt;&lt;b style=&quot;border-color: var(--border-color); background-color: initial;&quot;&gt;Distractors&lt;/b&gt;&lt;span style=&quot;border-color: var(--border-color); background-color: initial;&quot;&gt;:&lt;/span&gt;&lt;span style=&quot;border-color: var(--border-color); background-color: rgb(255, 255, 255);&quot;&gt;&lt;br style=&quot;border-color: var(--border-color);&quot;&gt;&lt;/span&gt;&lt;/div&gt;&lt;div style=&quot;border-color: var(--border-color);&quot;&gt;...&lt;/div&gt;&lt;/span&gt;&lt;/div&gt;&lt;/font&gt;" style="rounded=0;whiteSpace=wrap;html=1;fontSize=18;align=left;horizontal=1;verticalAlign=top;" vertex="1" parent="cKXsBEh2mnzxp_OMoGhj-1">
                    <mxGeometry x="42" y="700" width="320" height="270" as="geometry"/>
                </mxCell>
                <mxCell id="cKXsBEh2mnzxp_OMoGhj-24" value="&lt;div style=&quot;&quot;&gt;&lt;b style=&quot;background-color: initial;&quot;&gt;Question #N&lt;/b&gt;&lt;span style=&quot;background-color: initial;&quot;&gt;:&lt;/span&gt;&lt;/div&gt;&lt;div style=&quot;&quot;&gt;&lt;span style=&quot;background-color: initial;&quot;&gt;Who built the ISAs for the Advanced RISC Machines instruction set?&lt;/span&gt;&lt;/div&gt;&lt;font style=&quot;font-size: 18px;&quot;&gt;&lt;div style=&quot;&quot;&gt;&lt;span style=&quot;background-color: rgb(255, 255, 255);&quot;&gt;&lt;br&gt;&lt;/span&gt;&lt;/div&gt;&lt;div style=&quot;&quot;&gt;&lt;br&gt;&lt;/div&gt;&lt;div style=&quot;&quot;&gt;&lt;b style=&quot;border-color: var(--border-color); background-color: initial;&quot;&gt;Answer&lt;/b&gt;&lt;span style=&quot;border-color: var(--border-color); background-color: initial;&quot;&gt;:&lt;/span&gt;&lt;span style=&quot;background-color: rgb(255, 255, 255);&quot;&gt;&lt;br&gt;&lt;/span&gt;&lt;/div&gt;&lt;div style=&quot;&quot;&gt;Arm Ltd.&lt;/div&gt;&lt;div style=&quot;&quot;&gt;&lt;br&gt;&lt;/div&gt;&lt;div style=&quot;&quot;&gt;&lt;div style=&quot;border-color: var(--border-color);&quot;&gt;&lt;b style=&quot;border-color: var(--border-color); background-color: initial;&quot;&gt;Distractors&lt;/b&gt;&lt;span style=&quot;border-color: var(--border-color); background-color: initial;&quot;&gt;:&lt;/span&gt;&lt;span style=&quot;border-color: var(--border-color); background-color: rgb(255, 255, 255);&quot;&gt;&lt;br style=&quot;border-color: var(--border-color);&quot;&gt;&lt;/span&gt;&lt;/div&gt;&lt;div style=&quot;border-color: var(--border-color);&quot;&gt;[&quot;ISAs&quot;, &quot;processors&quot;, &quot;companies&quot;]&lt;/div&gt;&lt;/div&gt;&lt;/font&gt;" style="rounded=0;whiteSpace=wrap;html=1;fontSize=18;align=left;verticalAlign=top;" vertex="1" parent="cKXsBEh2mnzxp_OMoGhj-1">
                    <mxGeometry x="62" y="750" width="320" height="240" as="geometry"/>
                </mxCell>
                <mxCell id="cKXsBEh2mnzxp_OMoGhj-25" value="&lt;b&gt;Distractor generation&amp;nbsp;&lt;/b&gt;" style="rounded=0;whiteSpace=wrap;html=1;fontSize=18;" vertex="1" parent="cKXsBEh2mnzxp_OMoGhj-1">
                    <mxGeometry x="455" y="850" width="310" height="40" as="geometry"/>
                </mxCell>
                <mxCell id="cKXsBEh2mnzxp_OMoGhj-26" style="edgeStyle=none;html=1;entryX=0;entryY=0.5;entryDx=0;entryDy=0;fontSize=18;endArrow=none;endFill=0;startArrow=circle;startFill=1;exitX=1;exitY=0.5;exitDx=0;exitDy=0;" edge="1" parent="cKXsBEh2mnzxp_OMoGhj-1" source="cKXsBEh2mnzxp_OMoGhj-24" target="cKXsBEh2mnzxp_OMoGhj-25">
                    <mxGeometry relative="1" as="geometry">
                        <mxPoint x="-238" y="1000" as="sourcePoint"/>
                        <mxPoint x="-238" y="1050" as="targetPoint"/>
                    </mxGeometry>
                </mxCell>
                <mxCell id="cKXsBEh2mnzxp_OMoGhj-27" value="spaCy + Sense2vec&lt;br&gt;Distractor Generation" style="rounded=0;whiteSpace=wrap;html=1;fontSize=18;" vertex="1" parent="cKXsBEh2mnzxp_OMoGhj-1">
                    <mxGeometry x="885" y="835" width="340" height="70" as="geometry"/>
                </mxCell>
                <mxCell id="cKXsBEh2mnzxp_OMoGhj-28" style="edgeStyle=none;html=1;entryX=0;entryY=0.5;entryDx=0;entryDy=0;fontFamily=Helvetica;fontSize=24;startArrow=none;startFill=0;endArrow=block;endFill=0;endSize=15;exitX=1;exitY=0.5;exitDx=0;exitDy=0;" edge="1" parent="cKXsBEh2mnzxp_OMoGhj-1" source="cKXsBEh2mnzxp_OMoGhj-25" target="cKXsBEh2mnzxp_OMoGhj-27">
                    <mxGeometry relative="1" as="geometry">
                        <mxPoint x="770" y="870" as="sourcePoint"/>
                        <mxPoint x="630" y="585" as="targetPoint"/>
                    </mxGeometry>
                </mxCell>
            </root>
        </mxGraphModel>
    </diagram>
    <diagram id="p6fWOnLoi9_zKMBtG9WL" name="Page-1">
        <mxGraphModel dx="4200" dy="2899" grid="1" gridSize="10" guides="1" tooltips="1" connect="1" arrows="1" fold="1" page="1" pageScale="1" pageWidth="827" pageHeight="1169" math="0" shadow="0">
            <root>
                <mxCell id="0"/>
                <mxCell id="1" parent="0"/>
                <mxCell id="2" value="&lt;font style=&quot;font-size: 24px;&quot;&gt;Client&lt;/font&gt;" style="rounded=0;whiteSpace=wrap;html=1;fontStyle=1" parent="1" vertex="1">
                    <mxGeometry x="10" y="-80" width="1310" height="30" as="geometry"/>
                </mxCell>
                <mxCell id="3" value="&lt;font style=&quot;font-size: 24px;&quot;&gt;Server&lt;/font&gt;" style="rounded=0;whiteSpace=wrap;html=1;fontStyle=1;verticalAlign=top;" parent="1" vertex="1">
                    <mxGeometry x="10" width="1310" height="680" as="geometry"/>
                </mxCell>
                <mxCell id="4" value="" style="rounded=0;whiteSpace=wrap;html=1;fontSize=18;dashed=1;dashPattern=8 8;" parent="1" vertex="1">
                    <mxGeometry x="20" y="40" width="1270" height="480" as="geometry"/>
                </mxCell>
                <mxCell id="5" value="&lt;b&gt;&lt;i&gt;&lt;font style=&quot;font-size: 24px;&quot;&gt;MCQ Generator Module&lt;/font&gt;&lt;/i&gt;&lt;/b&gt;" style="text;html=1;strokeColor=none;fillColor=none;align=center;verticalAlign=middle;whiteSpace=wrap;rounded=0;dashed=1;dashPattern=8 8;fontSize=18;" parent="1" vertex="1">
                    <mxGeometry x="20" y="40" width="280" height="30" as="geometry"/>
                </mxCell>
                <mxCell id="6" value="&lt;font style=&quot;font-size: 18px;&quot;&gt;&lt;b style=&quot;&quot;&gt;Context&lt;/b&gt;:&lt;br&gt;Advanced RISC Machines is a family of RISC instruction set architectures (ISAs) for computer processors. Arm Ltd. develops the ISAs and licenses them to other companies, who build the physical devices that use the instruction set. It also designs and licenses cores that implement these ISAs.&lt;/font&gt;" style="rounded=0;whiteSpace=wrap;html=1;fontSize=18;align=left;" parent="1" vertex="1">
                    <mxGeometry x="30" y="160" width="280" height="230" as="geometry"/>
                </mxCell>
                <mxCell id="9" style="edgeStyle=none;html=1;entryX=0.5;entryY=0;entryDx=0;entryDy=0;fontSize=18;endArrow=none;endFill=0;startArrow=circle;startFill=1;exitX=0.5;exitY=1;exitDx=0;exitDy=0;" parent="1" source="6" target="8" edge="1">
                    <mxGeometry relative="1" as="geometry">
                        <mxPoint x="210" y="410" as="sourcePoint"/>
                    </mxGeometry>
                </mxCell>
                <mxCell id="8" value="&lt;b&gt;Text preprocessing&lt;/b&gt;" style="rounded=0;whiteSpace=wrap;html=1;fontSize=18;" parent="1" vertex="1">
                    <mxGeometry x="30" y="450" width="280" height="40" as="geometry"/>
                </mxCell>
                <mxCell id="10" value="&lt;div style=&quot;text-align: left;&quot;&gt;&lt;b style=&quot;background-color: initial;&quot;&gt;Question #1&lt;/b&gt;&lt;span style=&quot;background-color: initial;&quot;&gt;:&lt;/span&gt;&lt;/div&gt;&lt;font style=&quot;font-size: 18px;&quot;&gt;&lt;div style=&quot;text-align: left;&quot;&gt;&lt;span style=&quot;background-color: rgb(255, 255, 255);&quot;&gt;Lorem ipsum dolor sit amet, consectetur adipiscing elit. Curabitur lorem ante, porttitor at diam vel, mattis vehicula sem. Cras ante massa, tempus sed risus id, ornare porta sem.&lt;/span&gt;&lt;/div&gt;&lt;div style=&quot;text-align: left;&quot;&gt;&lt;span style=&quot;background-color: rgb(255, 255, 255);&quot;&gt;&lt;br&gt;&lt;/span&gt;&lt;/div&gt;&lt;div style=&quot;text-align: left;&quot;&gt;&lt;b style=&quot;border-color: var(--border-color); background-color: initial;&quot;&gt;Answer&lt;/b&gt;&lt;span style=&quot;border-color: var(--border-color); background-color: initial;&quot;&gt;:&lt;/span&gt;&lt;span style=&quot;background-color: rgb(255, 255, 255);&quot;&gt;&lt;br&gt;&lt;/span&gt;&lt;/div&gt;&lt;div style=&quot;text-align: left;&quot;&gt;&lt;span style=&quot;border-color: var(--border-color); background-color: initial;&quot;&gt;8&lt;/span&gt;&lt;/div&gt;&lt;/font&gt;" style="rounded=0;whiteSpace=wrap;html=1;fontSize=18;" parent="1" vertex="1">
                    <mxGeometry x="430" y="150" width="320" height="200" as="geometry"/>
                </mxCell>
                <mxCell id="11" value="&lt;div style=&quot;&quot;&gt;&lt;b style=&quot;background-color: initial;&quot;&gt;Question #...&lt;/b&gt;&lt;span style=&quot;background-color: initial;&quot;&gt;:&lt;/span&gt;&lt;/div&gt;&lt;font style=&quot;font-size: 18px;&quot;&gt;&lt;div style=&quot;&quot;&gt;&lt;span style=&quot;background-color: rgb(255, 255, 255);&quot;&gt;...&lt;/span&gt;&lt;/div&gt;&lt;div style=&quot;&quot;&gt;&lt;span style=&quot;background-color: rgb(255, 255, 255);&quot;&gt;&lt;br&gt;&lt;/span&gt;&lt;/div&gt;&lt;div style=&quot;&quot;&gt;&lt;span style=&quot;background-color: rgb(255, 255, 255);&quot;&gt;&lt;br&gt;&lt;/span&gt;&lt;/div&gt;&lt;div style=&quot;&quot;&gt;&lt;span style=&quot;background-color: rgb(255, 255, 255);&quot;&gt;&lt;br&gt;&lt;/span&gt;&lt;/div&gt;&lt;div style=&quot;&quot;&gt;&lt;span style=&quot;background-color: rgb(255, 255, 255);&quot;&gt;&lt;br&gt;&lt;/span&gt;&lt;/div&gt;&lt;div style=&quot;&quot;&gt;&lt;b style=&quot;border-color: var(--border-color); background-color: initial;&quot;&gt;Answer&lt;/b&gt;&lt;span style=&quot;border-color: var(--border-color); background-color: initial;&quot;&gt;:&lt;/span&gt;&lt;span style=&quot;background-color: rgb(255, 255, 255);&quot;&gt;&lt;br&gt;&lt;/span&gt;&lt;/div&gt;&lt;div style=&quot;&quot;&gt;...&lt;/div&gt;&lt;/font&gt;" style="rounded=0;whiteSpace=wrap;html=1;fontSize=18;align=left;" parent="1" vertex="1">
                    <mxGeometry x="440" y="180" width="320" height="200" as="geometry"/>
                </mxCell>
                <mxCell id="12" value="&lt;div style=&quot;&quot;&gt;&lt;b style=&quot;background-color: initial;&quot;&gt;Question #N&lt;/b&gt;&lt;span style=&quot;background-color: initial;&quot;&gt;:&lt;/span&gt;&lt;/div&gt;&lt;div style=&quot;&quot;&gt;&lt;span style=&quot;background-color: initial;&quot;&gt;Who built the ISAs for the Advanced RISC Machines instruction set?&lt;/span&gt;&lt;/div&gt;&lt;font style=&quot;font-size: 18px;&quot;&gt;&lt;div style=&quot;&quot;&gt;&lt;span style=&quot;background-color: rgb(255, 255, 255);&quot;&gt;&lt;br&gt;&lt;/span&gt;&lt;/div&gt;&lt;div style=&quot;&quot;&gt;&lt;br&gt;&lt;/div&gt;&lt;div style=&quot;&quot;&gt;&lt;b style=&quot;border-color: var(--border-color); background-color: initial;&quot;&gt;Answer&lt;/b&gt;&lt;span style=&quot;border-color: var(--border-color); background-color: initial;&quot;&gt;:&lt;/span&gt;&lt;span style=&quot;background-color: rgb(255, 255, 255);&quot;&gt;&lt;br&gt;&lt;/span&gt;&lt;/div&gt;&lt;div style=&quot;&quot;&gt;Arm Ltd.&lt;/div&gt;&lt;/font&gt;" style="rounded=0;whiteSpace=wrap;html=1;fontSize=18;align=left;" parent="1" vertex="1">
                    <mxGeometry x="460" y="230" width="320" height="170" as="geometry"/>
                </mxCell>
                <mxCell id="17" value="" style="rounded=0;whiteSpace=wrap;html=1;fontSize=18;dashed=1;dashPattern=8 8;" parent="1" vertex="1">
                    <mxGeometry x="19" y="540" width="1271" height="120" as="geometry"/>
                </mxCell>
                <mxCell id="20" style="edgeStyle=none;html=1;entryX=0.5;entryY=0;entryDx=0;entryDy=0;fontFamily=Helvetica;fontSize=24;startArrow=none;startFill=0;endArrow=block;endFill=0;endSize=15;" parent="1" source="13" target="19" edge="1">
                    <mxGeometry relative="1" as="geometry"/>
                </mxCell>
                <mxCell id="30" style="edgeStyle=none;html=1;entryX=0;entryY=0.5;entryDx=0;entryDy=0;fontSize=18;" edge="1" parent="1" source="13" target="28">
                    <mxGeometry relative="1" as="geometry"/>
                </mxCell>
                <mxCell id="13" value="&lt;b&gt;Question-answer generation&amp;nbsp;&lt;/b&gt;" style="rounded=0;whiteSpace=wrap;html=1;fontSize=18;" parent="1" vertex="1">
                    <mxGeometry x="460" y="450" width="320" height="40" as="geometry"/>
                </mxCell>
                <mxCell id="16" value="" style="endArrow=classic;html=1;fontFamily=Helvetica;fontSize=18;exitX=1;exitY=0.5;exitDx=0;exitDy=0;entryX=0;entryY=0.5;entryDx=0;entryDy=0;" parent="1" source="8" target="13" edge="1">
                    <mxGeometry width="50" height="50" relative="1" as="geometry">
                        <mxPoint x="210" y="550" as="sourcePoint"/>
                        <mxPoint x="260" y="500" as="targetPoint"/>
                    </mxGeometry>
                </mxCell>
                <mxCell id="18" value="&lt;b&gt;&lt;i&gt;&lt;font style=&quot;font-size: 24px;&quot;&gt;ML Models&lt;/font&gt;&lt;/i&gt;&lt;/b&gt;" style="text;html=1;strokeColor=none;fillColor=none;align=left;verticalAlign=middle;whiteSpace=wrap;rounded=0;dashed=1;dashPattern=8 8;fontSize=18;" parent="1" vertex="1">
                    <mxGeometry x="19" y="540" width="210" height="30" as="geometry"/>
                </mxCell>
                <mxCell id="19" value="T5-base&lt;br&gt;Multitask Question-Answer Generation" style="rounded=0;whiteSpace=wrap;html=1;fontSize=18;" parent="1" vertex="1">
                    <mxGeometry x="450" y="575" width="340" height="70" as="geometry"/>
                </mxCell>
                <mxCell id="21" style="edgeStyle=none;html=1;entryX=0.5;entryY=0;entryDx=0;entryDy=0;fontSize=18;endArrow=none;endFill=0;startArrow=circle;startFill=1;exitX=0.5;exitY=1;exitDx=0;exitDy=0;" parent="1" source="12" target="13" edge="1">
                    <mxGeometry relative="1" as="geometry">
                        <mxPoint x="180" y="400" as="sourcePoint"/>
                        <mxPoint x="180" y="460" as="targetPoint"/>
                    </mxGeometry>
                </mxCell>
                <mxCell id="22" value="" style="endArrow=classic;html=1;exitX=0.5;exitY=1;exitDx=0;exitDy=0;entryX=0.5;entryY=0;entryDx=0;entryDy=0;" edge="1" parent="1" source="2" target="3">
                    <mxGeometry relative="1" as="geometry">
                        <mxPoint x="570" y="-160" as="sourcePoint"/>
                        <mxPoint x="670" y="-160" as="targetPoint"/>
                    </mxGeometry>
                </mxCell>
                <mxCell id="23" value="&lt;font style=&quot;font-size: 18px;&quot;&gt;REST API&lt;/font&gt;" style="edgeLabel;resizable=0;html=1;align=center;verticalAlign=middle;" connectable="0" vertex="1" parent="22">
                    <mxGeometry relative="1" as="geometry"/>
                </mxCell>
                <mxCell id="24" value="&lt;div style=&quot;text-align: left;&quot;&gt;&lt;b style=&quot;background-color: initial;&quot;&gt;Question #1&lt;/b&gt;&lt;span style=&quot;background-color: initial;&quot;&gt;:&lt;/span&gt;&lt;/div&gt;&lt;font style=&quot;font-size: 18px;&quot;&gt;&lt;div style=&quot;text-align: left;&quot;&gt;&lt;span style=&quot;background-color: rgb(255, 255, 255);&quot;&gt;Lorem ipsum dolor sit amet, consectetur adipiscing elit. Curabitur lorem ante, porttitor at diam vel, mattis vehicula sem. Cras ante massa, tempus sed risus id, ornare porta sem.&lt;/span&gt;&lt;/div&gt;&lt;div style=&quot;text-align: left;&quot;&gt;&lt;span style=&quot;background-color: rgb(255, 255, 255);&quot;&gt;&lt;br&gt;&lt;/span&gt;&lt;/div&gt;&lt;div style=&quot;text-align: left;&quot;&gt;&lt;b style=&quot;border-color: var(--border-color); background-color: initial;&quot;&gt;Answer&lt;/b&gt;&lt;span style=&quot;border-color: var(--border-color); background-color: initial;&quot;&gt;:&lt;/span&gt;&lt;span style=&quot;background-color: rgb(255, 255, 255);&quot;&gt;&lt;br&gt;&lt;/span&gt;&lt;/div&gt;&lt;div style=&quot;text-align: left;&quot;&gt;&lt;span style=&quot;border-color: var(--border-color); background-color: initial;&quot;&gt;8&lt;/span&gt;&lt;/div&gt;&lt;div style=&quot;text-align: left;&quot;&gt;&lt;span style=&quot;border-color: var(--border-color); background-color: initial;&quot;&gt;&lt;br&gt;&lt;/span&gt;&lt;/div&gt;&lt;div style=&quot;text-align: left;&quot;&gt;&lt;span style=&quot;border-color: var(--border-color); background-color: initial;&quot;&gt;&lt;div style=&quot;border-color: var(--border-color);&quot;&gt;&lt;b style=&quot;border-color: var(--border-color); background-color: initial;&quot;&gt;Distractors&lt;/b&gt;&lt;span style=&quot;border-color: var(--border-color); background-color: initial;&quot;&gt;:&lt;/span&gt;&lt;span style=&quot;border-color: var(--border-color); background-color: rgb(255, 255, 255);&quot;&gt;&lt;br style=&quot;border-color: var(--border-color);&quot;&gt;&lt;/span&gt;&lt;/div&gt;&lt;div style=&quot;border-color: var(--border-color);&quot;&gt;[&quot;5&quot;, &quot;6&quot;, &quot;7&quot;]&lt;/div&gt;&lt;/span&gt;&lt;/div&gt;&lt;/font&gt;" style="rounded=0;whiteSpace=wrap;html=1;fontSize=18;" vertex="1" parent="1">
                    <mxGeometry x="898" y="70" width="320" height="270" as="geometry"/>
                </mxCell>
                <mxCell id="25" value="&lt;div style=&quot;&quot;&gt;&lt;b style=&quot;background-color: initial;&quot;&gt;Question #...&lt;/b&gt;&lt;span style=&quot;background-color: initial;&quot;&gt;:&lt;/span&gt;&lt;/div&gt;&lt;font style=&quot;font-size: 18px;&quot;&gt;&lt;div style=&quot;&quot;&gt;&lt;span style=&quot;background-color: rgb(255, 255, 255);&quot;&gt;...&lt;/span&gt;&lt;/div&gt;&lt;div style=&quot;&quot;&gt;&lt;span style=&quot;background-color: rgb(255, 255, 255);&quot;&gt;&lt;br&gt;&lt;/span&gt;&lt;/div&gt;&lt;div style=&quot;&quot;&gt;&lt;br&gt;&lt;/div&gt;&lt;div style=&quot;&quot;&gt;&lt;span style=&quot;background-color: rgb(255, 255, 255);&quot;&gt;&lt;br&gt;&lt;/span&gt;&lt;/div&gt;&lt;div style=&quot;&quot;&gt;&lt;span style=&quot;background-color: rgb(255, 255, 255);&quot;&gt;&lt;br&gt;&lt;/span&gt;&lt;/div&gt;&lt;div style=&quot;&quot;&gt;&lt;b style=&quot;border-color: var(--border-color); background-color: initial;&quot;&gt;Answer&lt;/b&gt;&lt;span style=&quot;border-color: var(--border-color); background-color: initial;&quot;&gt;:&lt;/span&gt;&lt;span style=&quot;background-color: rgb(255, 255, 255);&quot;&gt;&lt;br&gt;&lt;/span&gt;&lt;/div&gt;&lt;div style=&quot;&quot;&gt;...&lt;/div&gt;&lt;div style=&quot;&quot;&gt;&lt;span style=&quot;border-color: var(--border-color); background-color: initial;&quot;&gt;&lt;br&gt;&lt;/span&gt;&lt;/div&gt;&lt;div style=&quot;&quot;&gt;&lt;span style=&quot;border-color: var(--border-color); background-color: initial;&quot;&gt;&lt;br&gt;&lt;/span&gt;&lt;/div&gt;&lt;div style=&quot;&quot;&gt;&lt;span style=&quot;border-color: var(--border-color); background-color: initial;&quot;&gt;&lt;div style=&quot;border-color: var(--border-color);&quot;&gt;&lt;b style=&quot;border-color: var(--border-color); background-color: initial;&quot;&gt;Distractors&lt;/b&gt;&lt;span style=&quot;border-color: var(--border-color); background-color: initial;&quot;&gt;:&lt;/span&gt;&lt;span style=&quot;border-color: var(--border-color); background-color: rgb(255, 255, 255);&quot;&gt;&lt;br style=&quot;border-color: var(--border-color);&quot;&gt;&lt;/span&gt;&lt;/div&gt;&lt;div style=&quot;border-color: var(--border-color);&quot;&gt;...&lt;/div&gt;&lt;/span&gt;&lt;/div&gt;&lt;/font&gt;" style="rounded=0;whiteSpace=wrap;html=1;fontSize=18;align=left;horizontal=1;verticalAlign=top;" vertex="1" parent="1">
                    <mxGeometry x="910" y="110" width="320" height="270" as="geometry"/>
                </mxCell>
                <mxCell id="27" value="&lt;div style=&quot;&quot;&gt;&lt;b style=&quot;background-color: initial;&quot;&gt;Question #N&lt;/b&gt;&lt;span style=&quot;background-color: initial;&quot;&gt;:&lt;/span&gt;&lt;/div&gt;&lt;div style=&quot;&quot;&gt;&lt;span style=&quot;background-color: initial;&quot;&gt;Who built the ISAs for the Advanced RISC Machines instruction set?&lt;/span&gt;&lt;/div&gt;&lt;font style=&quot;font-size: 18px;&quot;&gt;&lt;div style=&quot;&quot;&gt;&lt;span style=&quot;background-color: rgb(255, 255, 255);&quot;&gt;&lt;br&gt;&lt;/span&gt;&lt;/div&gt;&lt;div style=&quot;&quot;&gt;&lt;br&gt;&lt;/div&gt;&lt;div style=&quot;&quot;&gt;&lt;b style=&quot;border-color: var(--border-color); background-color: initial;&quot;&gt;Answer&lt;/b&gt;&lt;span style=&quot;border-color: var(--border-color); background-color: initial;&quot;&gt;:&lt;/span&gt;&lt;span style=&quot;background-color: rgb(255, 255, 255);&quot;&gt;&lt;br&gt;&lt;/span&gt;&lt;/div&gt;&lt;div style=&quot;&quot;&gt;Arm Ltd.&lt;/div&gt;&lt;div style=&quot;&quot;&gt;&lt;br&gt;&lt;/div&gt;&lt;div style=&quot;&quot;&gt;&lt;div style=&quot;border-color: var(--border-color);&quot;&gt;&lt;b style=&quot;border-color: var(--border-color); background-color: initial;&quot;&gt;Distractors&lt;/b&gt;&lt;span style=&quot;border-color: var(--border-color); background-color: initial;&quot;&gt;:&lt;/span&gt;&lt;span style=&quot;border-color: var(--border-color); background-color: rgb(255, 255, 255);&quot;&gt;&lt;br style=&quot;border-color: var(--border-color);&quot;&gt;&lt;/span&gt;&lt;/div&gt;&lt;div style=&quot;border-color: var(--border-color);&quot;&gt;[&quot;ISAs&quot;, &quot;processors&quot;, &quot;companies&quot;]&lt;/div&gt;&lt;/div&gt;&lt;/font&gt;" style="rounded=0;whiteSpace=wrap;html=1;fontSize=18;align=left;verticalAlign=top;" vertex="1" parent="1">
                    <mxGeometry x="930" y="160" width="320" height="240" as="geometry"/>
                </mxCell>
                <mxCell id="28" value="&lt;b&gt;Distractor generation&amp;nbsp;&lt;/b&gt;" style="rounded=0;whiteSpace=wrap;html=1;fontSize=18;" vertex="1" parent="1">
                    <mxGeometry x="914" y="450" width="352" height="40" as="geometry"/>
                </mxCell>
                <mxCell id="29" style="edgeStyle=none;html=1;entryX=0.5;entryY=0;entryDx=0;entryDy=0;fontSize=18;endArrow=none;endFill=0;startArrow=circle;startFill=1;exitX=0.5;exitY=1;exitDx=0;exitDy=0;" edge="1" parent="1" source="27" target="28">
                    <mxGeometry relative="1" as="geometry">
                        <mxPoint x="630" y="410" as="sourcePoint"/>
                        <mxPoint x="630" y="460" as="targetPoint"/>
                    </mxGeometry>
                </mxCell>
                <mxCell id="31" value="spaCy + Sense2vec&lt;br&gt;Distractor Generation" style="rounded=0;whiteSpace=wrap;html=1;fontSize=18;" vertex="1" parent="1">
                    <mxGeometry x="920" y="575" width="340" height="70" as="geometry"/>
                </mxCell>
                <mxCell id="32" style="edgeStyle=none;html=1;entryX=0.5;entryY=0;entryDx=0;entryDy=0;fontFamily=Helvetica;fontSize=24;startArrow=none;startFill=0;endArrow=block;endFill=0;endSize=15;exitX=0.5;exitY=1;exitDx=0;exitDy=0;" edge="1" parent="1" source="28" target="31">
                    <mxGeometry relative="1" as="geometry">
                        <mxPoint x="630" y="500" as="sourcePoint"/>
                        <mxPoint x="630" y="585" as="targetPoint"/>
                    </mxGeometry>
                </mxCell>
            </root>
        </mxGraphModel>
    </diagram>
</mxfile>